<?xml version="1.0" encoding="utf-8"?>
<!-- Generator: Adobe Illustrator 21.1.0, SVG Export Plug-In . SVG Version: 6.00 Build 0)  -->
<svg version="1.0" id="Layer_1" xmlns="http://www.w3.org/2000/svg" xmlns:xlink="http://www.w3.org/1999/xlink" x="0px" y="0px"
	 viewBox="0 0 80 80" style="enable-background:new 0 0 80 80;" xml:space="preserve">
<style type="text/css">
	.st0{display:none;fill:#8B5CF6;}
	.st1{fill:#8B5CF6;}
</style>
<path class="st0" d="M74.4,80H5.6C2.5,80,0,77.5,0,74.4V5.6C0,2.5,2.5,0,5.6,0h68.8C77.5,0,80,2.5,80,5.6v68.8
	C80,77.5,77.5,80,74.4,80z"/>
<g>
	<polygon class="st1" points="20,55 20,11.1 40,0 60,11 60,55 53.3,58.3 53.3,15 46.8,11.7 46.7,61.7 40,65 33.3,61.7 33.2,11.6 
		26.7,15 26.7,58.3 	"/>
	<polygon class="st1" points="6.7,62.4 6.7,18.3 13.3,14.6 13.3,58.3 40,71.6 66.7,58.3 66.7,14.6 73.3,18.2 73.3,62.4 40,80 	"/>
</g>
</svg>
